<svg xmlns="http://www.w3.org/2000/svg" width="49.133" height="41" viewBox="0 0 49.133 41">
  <g id="Groupe_16" data-name="Groupe 16" transform="translate(-274 -4515)">
    <g id="Ellipse_2" data-name="Ellipse 2" transform="translate(274 4515)" fill="none" stroke="#03bec2" stroke-width="2">
      <circle cx="20.5" cy="20.5" r="20.5" stroke="none"/>
      <circle cx="20.5" cy="20.5" r="19.5" fill="none"/>
    </g>
    <g id="check30" transform="translate(155 4687.329)">
      <path id="Tracé_10" data-name="Tracé 10" d="M97.994,24.506l-2.929-2.929a2.123,2.123,0,0,0-3.036,0L74.8,38.806l-7-7a2.122,2.122,0,0,0-3.036,0l-2.929,2.929a2.122,2.122,0,0,0,0,3.036l11.45,11.45a2.121,2.121,0,0,0,3.036,0L97.994,27.542a2.122,2.122,0,0,0,0-3.036Z" transform="translate(68 -188)" fill="#03bec2" stroke="#03bec2" stroke-linejoin="round" stroke-width="3"/>
    </g>
  </g>
</svg>
