<svg id="logo-eflex-color" xmlns="http://www.w3.org/2000/svg" xmlns:xlink="http://www.w3.org/1999/xlink" width="149.047" height="39.495" viewBox="0 0 149.047 39.495">
  <defs>
    <clipPath id="clip-path">
      <rect id="Rectangle_1" data-name="Rectangle 1" width="149.047" height="39.495" fill="none"/>
    </clipPath>
  </defs>
  <g id="Groupe_1" data-name="Groupe 1" clip-path="url(#clip-path)">
    <path id="Tracé_1" data-name="Tracé 1" d="M24.138,34.558C22.8,30,19.444,27.6,15.421,27.6s-7.315,2.524-8.351,6.956Zm5.851,11.511c-3.536,4.494-8.411,7.2-13.715,7.264C5.974,53.333,0,45.515,0,37.635s5.974-15.7,16.275-15.7c6.156,0,15.3,5.109,15.3,16.744v1.17H7.071c.366,4.555,4.572,7.818,9.021,7.818a10.461,10.461,0,0,0,8.534-4.617Z" transform="translate(0 -13.874)" fill="#1e1e1e"/>
    <path id="Tracé_2" data-name="Tracé 2" d="M99.256,22.223H94.685V15.451h4.571V0h29.38a6.738,6.738,0,0,1-6.7,6.771h-15.6v8.68H121.87a6.739,6.739,0,0,1-6.705,6.772h-8.838V32.355a7.106,7.106,0,0,1-7.07,7.141V22.223Z" transform="translate(-59.879)" fill="#009ba4"/>
    <path id="Tracé_3" data-name="Tracé 3" d="M202.01,0V26.655c0,3.448.732,4.679,2.621,5.787l3.413,1.97-2.8,5.048c-6.522-3.14-9.57-5.417-9.57-11.635V0Z" transform="translate(-123.743)" fill="#1e1e1e"/>
    <path id="Tracé_4" data-name="Tracé 4" d="M257.947,34.558C256.607,30,253.254,27.6,249.231,27.6s-7.315,2.524-8.35,6.956ZM263.8,46.069c-3.535,4.494-8.411,7.2-13.714,7.264-10.3,0-16.275-7.818-16.275-15.7s5.974-15.7,16.275-15.7c6.156,0,15.3,5.109,15.3,16.744v1.17h-24.5c.365,4.555,4.571,7.818,9.021,7.818a10.461,10.461,0,0,0,8.533-4.617Z" transform="translate(-147.863 -13.874)" fill="#1e1e1e"/>
    <path id="Tracé_5" data-name="Tracé 5" d="M337.393,37.951l-11.212-16H334.1l6.945,11.014,6.839-11.014h7.436L344.159,37.581l11.167,15.8H347.28l-6.6-10.809-7.005,10.809h-7.5Z" transform="translate(-206.279 -13.882)" fill="#1e1e1e"/>
  </g>
</svg>
