<?xml version="1.0" encoding="UTF-8"?>
<svg id="Calque_1" data-name="Calque 1" xmlns="http://www.w3.org/2000/svg" version="1.1" viewBox="0 0 657.6 116.8">
  <defs>
    <style>
      .cls-1 {
        fill: #706a62;
      }

      .cls-1, .cls-2, .cls-3 {
        stroke-width: 0px;
      }

      .cls-2 {
        fill: #009ba4;
      }

      .cls-3 {
        fill: #1d1d1b;
      }
    </style>
  </defs>
  <g>
    <path class="cls-3" d="M177.8,74.7c.4,7.8,5.7,19.9,23.9,19.9s17.4-4.3,21-10.1h19.9c-4,7.8-13.6,23.4-40.4,23.4s-43.6-18.5-43.6-37.2,17.4-38.6,42.4-38.6,43.2,19.3,43.2,39.9v2.7h-66.5ZM225.1,63c-2.3-14.1-14.8-18.3-23.8-18.3s-20.5,4-23.5,18.3h47.3Z"/>
    <path class="cls-3" d="M254.8,8.8h18.3v96.5h-18.3V8.8Z"/>
    <path class="cls-3" d="M302.8,74.7c.4,7.8,5.7,19.9,23.9,19.9s17.4-4.3,21-10.1h19.9c-4,7.8-13.6,23.4-40.4,23.4s-43.6-18.5-43.6-37.2,17.4-38.6,42.4-38.6,43.2,19.3,43.2,39.9v2.7h-66.5ZM350.1,63c-2.3-14.1-14.8-18.3-23.8-18.3s-20.5,4-23.5,18.3h47.3Z"/>
    <path class="cls-3" d="M379.3,34.8h18.4v10.6h.3c6-7.6,15.3-12.5,27.8-12.5s29.9,5.5,29.9,24.5v47.9h-18.4v-42c0-7.6-2.5-16.2-17.7-16.2s-21.9,5.3-21.9,20.3v37.9h-18.4V34.8Z"/>
    <path class="cls-3" d="M484.7,74.7c.4,7.8,5.7,19.9,23.9,19.9s17.4-4.3,21-10.1h19.9c-4,7.8-13.6,23.4-40.4,23.4s-43.6-18.5-43.6-37.2,17.4-38.6,42.4-38.6,43.2,19.3,43.2,39.9v2.7h-66.5ZM532.1,63c-2.3-14.1-14.8-18.3-23.8-18.3s-20.5,4-23.5,18.3h47.3Z"/>
    <path class="cls-3" d="M601.8,32.2c31.5,0,43.6,18.5,43.6,37.9s-12.1,37.9-43.6,37.9-43.6-18.5-43.6-37.9,12.1-37.9,43.6-37.9ZM601.8,93.9c17.8,0,24.5-11.6,24.5-23.8s-6.7-23.8-24.5-23.8-24.5,11.6-24.5,23.8,6.6,23.8,24.5,23.8Z"/>
  </g>
  <g>
    <path class="cls-1" d="M100.3,59l-30.6,30.7c-5.2,5.2-12.2,8.1-19.6,8.1s-14.4-2.9-19.6-8.1c-5.2-5.2-8.1-12.2-8.1-19.6s2.9-14.4,8.1-19.6c5.2-5.2,12.2-8.1,19.6-8.1s8.3.9,12,2.7l7.5-7.5c-5.9-3.5-12.5-5.4-19.5-5.4-10.2,0-19.7,3.9-26.8,11.1-7.1,7.1-11.1,16.7-11.1,26.8s3.9,19.7,11.1,26.8c7.1,7.1,16.7,11.1,26.8,11.1s19.7-3.9,26.8-11.1l39.5-39.5c-5.1-2.7-11.5-2.2-16.1,1.6Z"/>
    <path class="cls-2" d="M55.8,81.1l30.6-30.7c5.2-5.2,12.2-8.1,19.6-8.1s14.4,2.9,19.6,8.1c5.2,5.2,8.1,12.2,8.1,19.6s-2.9,14.4-8.1,19.6c-5.2,5.2-12.2,8.1-19.6,8.1s-8.3-.9-12-2.7l-7.5,7.5c5.9,3.5,12.5,5.4,19.5,5.4,10.2,0,19.7-3.9,26.8-11.1,7.1-7.1,11.1-16.7,11.1-26.8s-3.9-19.7-11.1-26.8-16.7-11.1-26.8-11.1-19.7,3.9-26.8,11.1l-39.5,39.5c5.1,2.7,11.5,2.2,16.1-1.6Z"/>
  </g>
</svg>