<svg id="dots-en-carre" xmlns="http://www.w3.org/2000/svg" xmlns:xlink="http://www.w3.org/1999/xlink" width="100" height="100" viewBox="0 0 100 100">
  <defs>
    <clipPath id="clip-path">
      <rect width="100" height="100" fill="none"/>
    </clipPath>
  </defs>
  <g id="Grille_de_répétition_8" data-name="Grille de répétition 8" clip-path="url(#clip-path)">
    <g transform="translate(-2249 -496)">
      <circle id="Ellipse_19" data-name="Ellipse 19" cx="1.5" cy="1.5" r="1.5" transform="translate(2249 496)" fill="#e5e5e7" opacity="0.9"/>
    </g>
    <g transform="translate(-2240 -496)">
      <circle id="Ellipse_19-2" data-name="Ellipse 19" cx="1.5" cy="1.5" r="1.5" transform="translate(2249 496)" fill="#e5e5e7" opacity="0.9"/>
    </g>
    <g transform="translate(-2231 -496)">
      <circle id="Ellipse_19-3" data-name="Ellipse 19" cx="1.5" cy="1.5" r="1.5" transform="translate(2249 496)" fill="#e5e5e7" opacity="0.9"/>
    </g>
    <g transform="translate(-2222 -496)">
      <circle id="Ellipse_19-4" data-name="Ellipse 19" cx="1.5" cy="1.5" r="1.5" transform="translate(2249 496)" fill="#e5e5e7" opacity="0.9"/>
    </g>
    <g transform="translate(-2213 -496)">
      <circle id="Ellipse_19-5" data-name="Ellipse 19" cx="1.5" cy="1.5" r="1.5" transform="translate(2249 496)" fill="#e5e5e7" opacity="0.9"/>
    </g>
    <g transform="translate(-2204 -496)">
      <circle id="Ellipse_19-6" data-name="Ellipse 19" cx="1.5" cy="1.5" r="1.5" transform="translate(2249 496)" fill="#e5e5e7" opacity="0.9"/>
    </g>
    <g transform="translate(-2195 -496)">
      <circle id="Ellipse_19-7" data-name="Ellipse 19" cx="1.5" cy="1.5" r="1.5" transform="translate(2249 496)" fill="#e5e5e7" opacity="0.9"/>
    </g>
    <g transform="translate(-2186 -496)">
      <circle id="Ellipse_19-8" data-name="Ellipse 19" cx="1.5" cy="1.5" r="1.5" transform="translate(2249 496)" fill="#e5e5e7" opacity="0.9"/>
    </g>
    <g transform="translate(-2177 -496)">
      <circle id="Ellipse_19-9" data-name="Ellipse 19" cx="1.5" cy="1.5" r="1.5" transform="translate(2249 496)" fill="#e5e5e7" opacity="0.9"/>
    </g>
    <g transform="translate(-2168 -496)">
      <circle id="Ellipse_19-10" data-name="Ellipse 19" cx="1.5" cy="1.5" r="1.5" transform="translate(2249 496)" fill="#e5e5e7" opacity="0.9"/>
    </g>
    <g transform="translate(-2159 -496)">
      <circle id="Ellipse_19-11" data-name="Ellipse 19" cx="1.5" cy="1.5" r="1.5" transform="translate(2249 496)" fill="#e5e5e7" opacity="0.9"/>
    </g>
    <g transform="translate(-2150 -496)">
      <circle id="Ellipse_19-12" data-name="Ellipse 19" cx="1.5" cy="1.5" r="1.5" transform="translate(2249 496)" fill="#e5e5e7" opacity="0.9"/>
    </g>
    <g transform="translate(-2249 -486)">
      <circle id="Ellipse_19-13" data-name="Ellipse 19" cx="1.5" cy="1.5" r="1.5" transform="translate(2249 496)" fill="#e5e5e7" opacity="0.9"/>
    </g>
    <g transform="translate(-2240 -486)">
      <circle id="Ellipse_19-14" data-name="Ellipse 19" cx="1.5" cy="1.5" r="1.5" transform="translate(2249 496)" fill="#e5e5e7" opacity="0.9"/>
    </g>
    <g transform="translate(-2231 -486)">
      <circle id="Ellipse_19-15" data-name="Ellipse 19" cx="1.5" cy="1.5" r="1.5" transform="translate(2249 496)" fill="#e5e5e7" opacity="0.9"/>
    </g>
    <g transform="translate(-2222 -486)">
      <circle id="Ellipse_19-16" data-name="Ellipse 19" cx="1.5" cy="1.5" r="1.5" transform="translate(2249 496)" fill="#e5e5e7" opacity="0.9"/>
    </g>
    <g transform="translate(-2213 -486)">
      <circle id="Ellipse_19-17" data-name="Ellipse 19" cx="1.5" cy="1.5" r="1.5" transform="translate(2249 496)" fill="#e5e5e7" opacity="0.9"/>
    </g>
    <g transform="translate(-2204 -486)">
      <circle id="Ellipse_19-18" data-name="Ellipse 19" cx="1.5" cy="1.5" r="1.5" transform="translate(2249 496)" fill="#e5e5e7" opacity="0.9"/>
    </g>
    <g transform="translate(-2195 -486)">
      <circle id="Ellipse_19-19" data-name="Ellipse 19" cx="1.5" cy="1.5" r="1.5" transform="translate(2249 496)" fill="#e5e5e7" opacity="0.9"/>
    </g>
    <g transform="translate(-2186 -486)">
      <circle id="Ellipse_19-20" data-name="Ellipse 19" cx="1.5" cy="1.5" r="1.5" transform="translate(2249 496)" fill="#e5e5e7" opacity="0.9"/>
    </g>
    <g transform="translate(-2177 -486)">
      <circle id="Ellipse_19-21" data-name="Ellipse 19" cx="1.5" cy="1.5" r="1.5" transform="translate(2249 496)" fill="#e5e5e7" opacity="0.9"/>
    </g>
    <g transform="translate(-2168 -486)">
      <circle id="Ellipse_19-22" data-name="Ellipse 19" cx="1.5" cy="1.5" r="1.5" transform="translate(2249 496)" fill="#e5e5e7" opacity="0.9"/>
    </g>
    <g transform="translate(-2159 -486)">
      <circle id="Ellipse_19-23" data-name="Ellipse 19" cx="1.5" cy="1.5" r="1.5" transform="translate(2249 496)" fill="#e5e5e7" opacity="0.9"/>
    </g>
    <g transform="translate(-2150 -486)">
      <circle id="Ellipse_19-24" data-name="Ellipse 19" cx="1.5" cy="1.5" r="1.5" transform="translate(2249 496)" fill="#e5e5e7" opacity="0.9"/>
    </g>
    <g transform="translate(-2249 -476)">
      <circle id="Ellipse_19-25" data-name="Ellipse 19" cx="1.5" cy="1.5" r="1.5" transform="translate(2249 496)" fill="#e5e5e7" opacity="0.9"/>
    </g>
    <g transform="translate(-2240 -476)">
      <circle id="Ellipse_19-26" data-name="Ellipse 19" cx="1.5" cy="1.5" r="1.5" transform="translate(2249 496)" fill="#e5e5e7" opacity="0.9"/>
    </g>
    <g transform="translate(-2231 -476)">
      <circle id="Ellipse_19-27" data-name="Ellipse 19" cx="1.5" cy="1.5" r="1.5" transform="translate(2249 496)" fill="#e5e5e7" opacity="0.9"/>
    </g>
    <g transform="translate(-2222 -476)">
      <circle id="Ellipse_19-28" data-name="Ellipse 19" cx="1.5" cy="1.5" r="1.5" transform="translate(2249 496)" fill="#e5e5e7" opacity="0.9"/>
    </g>
    <g transform="translate(-2213 -476)">
      <circle id="Ellipse_19-29" data-name="Ellipse 19" cx="1.5" cy="1.5" r="1.5" transform="translate(2249 496)" fill="#e5e5e7" opacity="0.9"/>
    </g>
    <g transform="translate(-2204 -476)">
      <circle id="Ellipse_19-30" data-name="Ellipse 19" cx="1.5" cy="1.5" r="1.5" transform="translate(2249 496)" fill="#e5e5e7" opacity="0.9"/>
    </g>
    <g transform="translate(-2195 -476)">
      <circle id="Ellipse_19-31" data-name="Ellipse 19" cx="1.5" cy="1.5" r="1.5" transform="translate(2249 496)" fill="#e5e5e7" opacity="0.9"/>
    </g>
    <g transform="translate(-2186 -476)">
      <circle id="Ellipse_19-32" data-name="Ellipse 19" cx="1.5" cy="1.5" r="1.5" transform="translate(2249 496)" fill="#e5e5e7" opacity="0.9"/>
    </g>
    <g transform="translate(-2177 -476)">
      <circle id="Ellipse_19-33" data-name="Ellipse 19" cx="1.5" cy="1.5" r="1.5" transform="translate(2249 496)" fill="#e5e5e7" opacity="0.9"/>
    </g>
    <g transform="translate(-2168 -476)">
      <circle id="Ellipse_19-34" data-name="Ellipse 19" cx="1.5" cy="1.5" r="1.5" transform="translate(2249 496)" fill="#e5e5e7" opacity="0.9"/>
    </g>
    <g transform="translate(-2159 -476)">
      <circle id="Ellipse_19-35" data-name="Ellipse 19" cx="1.5" cy="1.5" r="1.5" transform="translate(2249 496)" fill="#e5e5e7" opacity="0.9"/>
    </g>
    <g transform="translate(-2150 -476)">
      <circle id="Ellipse_19-36" data-name="Ellipse 19" cx="1.5" cy="1.5" r="1.5" transform="translate(2249 496)" fill="#e5e5e7" opacity="0.9"/>
    </g>
    <g transform="translate(-2249 -466)">
      <circle id="Ellipse_19-37" data-name="Ellipse 19" cx="1.5" cy="1.5" r="1.5" transform="translate(2249 496)" fill="#e5e5e7" opacity="0.9"/>
    </g>
    <g transform="translate(-2240 -466)">
      <circle id="Ellipse_19-38" data-name="Ellipse 19" cx="1.5" cy="1.5" r="1.5" transform="translate(2249 496)" fill="#e5e5e7" opacity="0.9"/>
    </g>
    <g transform="translate(-2231 -466)">
      <circle id="Ellipse_19-39" data-name="Ellipse 19" cx="1.5" cy="1.5" r="1.5" transform="translate(2249 496)" fill="#e5e5e7" opacity="0.9"/>
    </g>
    <g transform="translate(-2222 -466)">
      <circle id="Ellipse_19-40" data-name="Ellipse 19" cx="1.5" cy="1.5" r="1.5" transform="translate(2249 496)" fill="#e5e5e7" opacity="0.9"/>
    </g>
    <g transform="translate(-2213 -466)">
      <circle id="Ellipse_19-41" data-name="Ellipse 19" cx="1.5" cy="1.5" r="1.5" transform="translate(2249 496)" fill="#e5e5e7" opacity="0.9"/>
    </g>
    <g transform="translate(-2204 -466)">
      <circle id="Ellipse_19-42" data-name="Ellipse 19" cx="1.5" cy="1.5" r="1.5" transform="translate(2249 496)" fill="#e5e5e7" opacity="0.9"/>
    </g>
    <g transform="translate(-2195 -466)">
      <circle id="Ellipse_19-43" data-name="Ellipse 19" cx="1.5" cy="1.5" r="1.5" transform="translate(2249 496)" fill="#e5e5e7" opacity="0.9"/>
    </g>
    <g transform="translate(-2186 -466)">
      <circle id="Ellipse_19-44" data-name="Ellipse 19" cx="1.5" cy="1.5" r="1.5" transform="translate(2249 496)" fill="#e5e5e7" opacity="0.9"/>
    </g>
    <g transform="translate(-2177 -466)">
      <circle id="Ellipse_19-45" data-name="Ellipse 19" cx="1.5" cy="1.5" r="1.5" transform="translate(2249 496)" fill="#e5e5e7" opacity="0.9"/>
    </g>
    <g transform="translate(-2168 -466)">
      <circle id="Ellipse_19-46" data-name="Ellipse 19" cx="1.5" cy="1.5" r="1.5" transform="translate(2249 496)" fill="#e5e5e7" opacity="0.9"/>
    </g>
    <g transform="translate(-2159 -466)">
      <circle id="Ellipse_19-47" data-name="Ellipse 19" cx="1.5" cy="1.5" r="1.5" transform="translate(2249 496)" fill="#e5e5e7" opacity="0.9"/>
    </g>
    <g transform="translate(-2150 -466)">
      <circle id="Ellipse_19-48" data-name="Ellipse 19" cx="1.5" cy="1.5" r="1.5" transform="translate(2249 496)" fill="#e5e5e7" opacity="0.9"/>
    </g>
    <g transform="translate(-2249 -456)">
      <circle id="Ellipse_19-49" data-name="Ellipse 19" cx="1.5" cy="1.5" r="1.5" transform="translate(2249 496)" fill="#e5e5e7" opacity="0.9"/>
    </g>
    <g transform="translate(-2240 -456)">
      <circle id="Ellipse_19-50" data-name="Ellipse 19" cx="1.5" cy="1.5" r="1.5" transform="translate(2249 496)" fill="#e5e5e7" opacity="0.9"/>
    </g>
    <g transform="translate(-2231 -456)">
      <circle id="Ellipse_19-51" data-name="Ellipse 19" cx="1.5" cy="1.5" r="1.5" transform="translate(2249 496)" fill="#e5e5e7" opacity="0.9"/>
    </g>
    <g transform="translate(-2222 -456)">
      <circle id="Ellipse_19-52" data-name="Ellipse 19" cx="1.5" cy="1.5" r="1.5" transform="translate(2249 496)" fill="#e5e5e7" opacity="0.9"/>
    </g>
    <g transform="translate(-2213 -456)">
      <circle id="Ellipse_19-53" data-name="Ellipse 19" cx="1.5" cy="1.5" r="1.5" transform="translate(2249 496)" fill="#e5e5e7" opacity="0.9"/>
    </g>
    <g transform="translate(-2204 -456)">
      <circle id="Ellipse_19-54" data-name="Ellipse 19" cx="1.5" cy="1.5" r="1.5" transform="translate(2249 496)" fill="#e5e5e7" opacity="0.9"/>
    </g>
    <g transform="translate(-2195 -456)">
      <circle id="Ellipse_19-55" data-name="Ellipse 19" cx="1.5" cy="1.5" r="1.5" transform="translate(2249 496)" fill="#e5e5e7" opacity="0.9"/>
    </g>
    <g transform="translate(-2186 -456)">
      <circle id="Ellipse_19-56" data-name="Ellipse 19" cx="1.5" cy="1.5" r="1.5" transform="translate(2249 496)" fill="#e5e5e7" opacity="0.9"/>
    </g>
    <g transform="translate(-2177 -456)">
      <circle id="Ellipse_19-57" data-name="Ellipse 19" cx="1.5" cy="1.5" r="1.5" transform="translate(2249 496)" fill="#e5e5e7" opacity="0.9"/>
    </g>
    <g transform="translate(-2168 -456)">
      <circle id="Ellipse_19-58" data-name="Ellipse 19" cx="1.5" cy="1.5" r="1.5" transform="translate(2249 496)" fill="#e5e5e7" opacity="0.9"/>
    </g>
    <g transform="translate(-2159 -456)">
      <circle id="Ellipse_19-59" data-name="Ellipse 19" cx="1.5" cy="1.5" r="1.5" transform="translate(2249 496)" fill="#e5e5e7" opacity="0.9"/>
    </g>
    <g transform="translate(-2150 -456)">
      <circle id="Ellipse_19-60" data-name="Ellipse 19" cx="1.5" cy="1.5" r="1.5" transform="translate(2249 496)" fill="#e5e5e7" opacity="0.9"/>
    </g>
    <g transform="translate(-2249 -446)">
      <circle id="Ellipse_19-61" data-name="Ellipse 19" cx="1.5" cy="1.5" r="1.5" transform="translate(2249 496)" fill="#e5e5e7" opacity="0.9"/>
    </g>
    <g transform="translate(-2240 -446)">
      <circle id="Ellipse_19-62" data-name="Ellipse 19" cx="1.5" cy="1.5" r="1.5" transform="translate(2249 496)" fill="#e5e5e7" opacity="0.9"/>
    </g>
    <g transform="translate(-2231 -446)">
      <circle id="Ellipse_19-63" data-name="Ellipse 19" cx="1.5" cy="1.5" r="1.5" transform="translate(2249 496)" fill="#e5e5e7" opacity="0.9"/>
    </g>
    <g transform="translate(-2222 -446)">
      <circle id="Ellipse_19-64" data-name="Ellipse 19" cx="1.5" cy="1.5" r="1.5" transform="translate(2249 496)" fill="#e5e5e7" opacity="0.9"/>
    </g>
    <g transform="translate(-2213 -446)">
      <circle id="Ellipse_19-65" data-name="Ellipse 19" cx="1.5" cy="1.5" r="1.5" transform="translate(2249 496)" fill="#e5e5e7" opacity="0.9"/>
    </g>
    <g transform="translate(-2204 -446)">
      <circle id="Ellipse_19-66" data-name="Ellipse 19" cx="1.5" cy="1.5" r="1.5" transform="translate(2249 496)" fill="#e5e5e7" opacity="0.9"/>
    </g>
    <g transform="translate(-2195 -446)">
      <circle id="Ellipse_19-67" data-name="Ellipse 19" cx="1.5" cy="1.5" r="1.5" transform="translate(2249 496)" fill="#e5e5e7" opacity="0.9"/>
    </g>
    <g transform="translate(-2186 -446)">
      <circle id="Ellipse_19-68" data-name="Ellipse 19" cx="1.5" cy="1.5" r="1.5" transform="translate(2249 496)" fill="#e5e5e7" opacity="0.9"/>
    </g>
    <g transform="translate(-2177 -446)">
      <circle id="Ellipse_19-69" data-name="Ellipse 19" cx="1.5" cy="1.5" r="1.5" transform="translate(2249 496)" fill="#e5e5e7" opacity="0.9"/>
    </g>
    <g transform="translate(-2168 -446)">
      <circle id="Ellipse_19-70" data-name="Ellipse 19" cx="1.5" cy="1.5" r="1.5" transform="translate(2249 496)" fill="#e5e5e7" opacity="0.9"/>
    </g>
    <g transform="translate(-2159 -446)">
      <circle id="Ellipse_19-71" data-name="Ellipse 19" cx="1.5" cy="1.5" r="1.5" transform="translate(2249 496)" fill="#e5e5e7" opacity="0.9"/>
    </g>
    <g transform="translate(-2150 -446)">
      <circle id="Ellipse_19-72" data-name="Ellipse 19" cx="1.5" cy="1.5" r="1.5" transform="translate(2249 496)" fill="#e5e5e7" opacity="0.9"/>
    </g>
    <g transform="translate(-2249 -436)">
      <circle id="Ellipse_19-73" data-name="Ellipse 19" cx="1.5" cy="1.5" r="1.5" transform="translate(2249 496)" fill="#e5e5e7" opacity="0.9"/>
    </g>
    <g transform="translate(-2240 -436)">
      <circle id="Ellipse_19-74" data-name="Ellipse 19" cx="1.5" cy="1.5" r="1.5" transform="translate(2249 496)" fill="#e5e5e7" opacity="0.9"/>
    </g>
    <g transform="translate(-2231 -436)">
      <circle id="Ellipse_19-75" data-name="Ellipse 19" cx="1.5" cy="1.5" r="1.5" transform="translate(2249 496)" fill="#e5e5e7" opacity="0.9"/>
    </g>
    <g transform="translate(-2222 -436)">
      <circle id="Ellipse_19-76" data-name="Ellipse 19" cx="1.5" cy="1.5" r="1.5" transform="translate(2249 496)" fill="#e5e5e7" opacity="0.9"/>
    </g>
    <g transform="translate(-2213 -436)">
      <circle id="Ellipse_19-77" data-name="Ellipse 19" cx="1.5" cy="1.5" r="1.5" transform="translate(2249 496)" fill="#e5e5e7" opacity="0.9"/>
    </g>
    <g transform="translate(-2204 -436)">
      <circle id="Ellipse_19-78" data-name="Ellipse 19" cx="1.5" cy="1.5" r="1.5" transform="translate(2249 496)" fill="#e5e5e7" opacity="0.9"/>
    </g>
    <g transform="translate(-2195 -436)">
      <circle id="Ellipse_19-79" data-name="Ellipse 19" cx="1.5" cy="1.5" r="1.5" transform="translate(2249 496)" fill="#e5e5e7" opacity="0.9"/>
    </g>
    <g transform="translate(-2186 -436)">
      <circle id="Ellipse_19-80" data-name="Ellipse 19" cx="1.5" cy="1.5" r="1.5" transform="translate(2249 496)" fill="#e5e5e7" opacity="0.9"/>
    </g>
    <g transform="translate(-2177 -436)">
      <circle id="Ellipse_19-81" data-name="Ellipse 19" cx="1.5" cy="1.5" r="1.5" transform="translate(2249 496)" fill="#e5e5e7" opacity="0.9"/>
    </g>
    <g transform="translate(-2168 -436)">
      <circle id="Ellipse_19-82" data-name="Ellipse 19" cx="1.5" cy="1.5" r="1.5" transform="translate(2249 496)" fill="#e5e5e7" opacity="0.9"/>
    </g>
    <g transform="translate(-2159 -436)">
      <circle id="Ellipse_19-83" data-name="Ellipse 19" cx="1.5" cy="1.5" r="1.5" transform="translate(2249 496)" fill="#e5e5e7" opacity="0.9"/>
    </g>
    <g transform="translate(-2150 -436)">
      <circle id="Ellipse_19-84" data-name="Ellipse 19" cx="1.5" cy="1.5" r="1.5" transform="translate(2249 496)" fill="#e5e5e7" opacity="0.9"/>
    </g>
    <g transform="translate(-2249 -426)">
      <circle id="Ellipse_19-85" data-name="Ellipse 19" cx="1.5" cy="1.5" r="1.5" transform="translate(2249 496)" fill="#e5e5e7" opacity="0.9"/>
    </g>
    <g transform="translate(-2240 -426)">
      <circle id="Ellipse_19-86" data-name="Ellipse 19" cx="1.5" cy="1.5" r="1.5" transform="translate(2249 496)" fill="#e5e5e7" opacity="0.9"/>
    </g>
    <g transform="translate(-2231 -426)">
      <circle id="Ellipse_19-87" data-name="Ellipse 19" cx="1.5" cy="1.5" r="1.5" transform="translate(2249 496)" fill="#e5e5e7" opacity="0.9"/>
    </g>
    <g transform="translate(-2222 -426)">
      <circle id="Ellipse_19-88" data-name="Ellipse 19" cx="1.5" cy="1.5" r="1.5" transform="translate(2249 496)" fill="#e5e5e7" opacity="0.9"/>
    </g>
    <g transform="translate(-2213 -426)">
      <circle id="Ellipse_19-89" data-name="Ellipse 19" cx="1.5" cy="1.5" r="1.5" transform="translate(2249 496)" fill="#e5e5e7" opacity="0.9"/>
    </g>
    <g transform="translate(-2204 -426)">
      <circle id="Ellipse_19-90" data-name="Ellipse 19" cx="1.5" cy="1.5" r="1.5" transform="translate(2249 496)" fill="#e5e5e7" opacity="0.9"/>
    </g>
    <g transform="translate(-2195 -426)">
      <circle id="Ellipse_19-91" data-name="Ellipse 19" cx="1.5" cy="1.5" r="1.5" transform="translate(2249 496)" fill="#e5e5e7" opacity="0.9"/>
    </g>
    <g transform="translate(-2186 -426)">
      <circle id="Ellipse_19-92" data-name="Ellipse 19" cx="1.5" cy="1.5" r="1.5" transform="translate(2249 496)" fill="#e5e5e7" opacity="0.9"/>
    </g>
    <g transform="translate(-2177 -426)">
      <circle id="Ellipse_19-93" data-name="Ellipse 19" cx="1.5" cy="1.5" r="1.5" transform="translate(2249 496)" fill="#e5e5e7" opacity="0.9"/>
    </g>
    <g transform="translate(-2168 -426)">
      <circle id="Ellipse_19-94" data-name="Ellipse 19" cx="1.5" cy="1.5" r="1.5" transform="translate(2249 496)" fill="#e5e5e7" opacity="0.9"/>
    </g>
    <g transform="translate(-2159 -426)">
      <circle id="Ellipse_19-95" data-name="Ellipse 19" cx="1.5" cy="1.5" r="1.5" transform="translate(2249 496)" fill="#e5e5e7" opacity="0.9"/>
    </g>
    <g transform="translate(-2150 -426)">
      <circle id="Ellipse_19-96" data-name="Ellipse 19" cx="1.5" cy="1.5" r="1.5" transform="translate(2249 496)" fill="#e5e5e7" opacity="0.9"/>
    </g>
    <g transform="translate(-2249 -416)">
      <circle id="Ellipse_19-97" data-name="Ellipse 19" cx="1.5" cy="1.5" r="1.5" transform="translate(2249 496)" fill="#e5e5e7" opacity="0.9"/>
    </g>
    <g transform="translate(-2240 -416)">
      <circle id="Ellipse_19-98" data-name="Ellipse 19" cx="1.5" cy="1.5" r="1.5" transform="translate(2249 496)" fill="#e5e5e7" opacity="0.9"/>
    </g>
    <g transform="translate(-2231 -416)">
      <circle id="Ellipse_19-99" data-name="Ellipse 19" cx="1.5" cy="1.5" r="1.5" transform="translate(2249 496)" fill="#e5e5e7" opacity="0.9"/>
    </g>
    <g transform="translate(-2222 -416)">
      <circle id="Ellipse_19-100" data-name="Ellipse 19" cx="1.5" cy="1.5" r="1.5" transform="translate(2249 496)" fill="#e5e5e7" opacity="0.9"/>
    </g>
    <g transform="translate(-2213 -416)">
      <circle id="Ellipse_19-101" data-name="Ellipse 19" cx="1.5" cy="1.5" r="1.5" transform="translate(2249 496)" fill="#e5e5e7" opacity="0.9"/>
    </g>
    <g transform="translate(-2204 -416)">
      <circle id="Ellipse_19-102" data-name="Ellipse 19" cx="1.5" cy="1.5" r="1.5" transform="translate(2249 496)" fill="#e5e5e7" opacity="0.9"/>
    </g>
    <g transform="translate(-2195 -416)">
      <circle id="Ellipse_19-103" data-name="Ellipse 19" cx="1.5" cy="1.5" r="1.5" transform="translate(2249 496)" fill="#e5e5e7" opacity="0.9"/>
    </g>
    <g transform="translate(-2186 -416)">
      <circle id="Ellipse_19-104" data-name="Ellipse 19" cx="1.5" cy="1.5" r="1.5" transform="translate(2249 496)" fill="#e5e5e7" opacity="0.9"/>
    </g>
    <g transform="translate(-2177 -416)">
      <circle id="Ellipse_19-105" data-name="Ellipse 19" cx="1.5" cy="1.5" r="1.5" transform="translate(2249 496)" fill="#e5e5e7" opacity="0.9"/>
    </g>
    <g transform="translate(-2168 -416)">
      <circle id="Ellipse_19-106" data-name="Ellipse 19" cx="1.5" cy="1.5" r="1.5" transform="translate(2249 496)" fill="#e5e5e7" opacity="0.9"/>
    </g>
    <g transform="translate(-2159 -416)">
      <circle id="Ellipse_19-107" data-name="Ellipse 19" cx="1.5" cy="1.5" r="1.5" transform="translate(2249 496)" fill="#e5e5e7" opacity="0.9"/>
    </g>
    <g transform="translate(-2150 -416)">
      <circle id="Ellipse_19-108" data-name="Ellipse 19" cx="1.5" cy="1.5" r="1.5" transform="translate(2249 496)" fill="#e5e5e7" opacity="0.9"/>
    </g>
    <g transform="translate(-2249 -406)">
      <circle id="Ellipse_19-109" data-name="Ellipse 19" cx="1.5" cy="1.5" r="1.5" transform="translate(2249 496)" fill="#e5e5e7" opacity="0.9"/>
    </g>
    <g transform="translate(-2240 -406)">
      <circle id="Ellipse_19-110" data-name="Ellipse 19" cx="1.5" cy="1.5" r="1.5" transform="translate(2249 496)" fill="#e5e5e7" opacity="0.9"/>
    </g>
    <g transform="translate(-2231 -406)">
      <circle id="Ellipse_19-111" data-name="Ellipse 19" cx="1.5" cy="1.5" r="1.5" transform="translate(2249 496)" fill="#e5e5e7" opacity="0.9"/>
    </g>
    <g transform="translate(-2222 -406)">
      <circle id="Ellipse_19-112" data-name="Ellipse 19" cx="1.5" cy="1.5" r="1.5" transform="translate(2249 496)" fill="#e5e5e7" opacity="0.9"/>
    </g>
    <g transform="translate(-2213 -406)">
      <circle id="Ellipse_19-113" data-name="Ellipse 19" cx="1.5" cy="1.5" r="1.5" transform="translate(2249 496)" fill="#e5e5e7" opacity="0.9"/>
    </g>
    <g transform="translate(-2204 -406)">
      <circle id="Ellipse_19-114" data-name="Ellipse 19" cx="1.5" cy="1.5" r="1.5" transform="translate(2249 496)" fill="#e5e5e7" opacity="0.9"/>
    </g>
    <g transform="translate(-2195 -406)">
      <circle id="Ellipse_19-115" data-name="Ellipse 19" cx="1.5" cy="1.5" r="1.5" transform="translate(2249 496)" fill="#e5e5e7" opacity="0.9"/>
    </g>
    <g transform="translate(-2186 -406)">
      <circle id="Ellipse_19-116" data-name="Ellipse 19" cx="1.5" cy="1.5" r="1.5" transform="translate(2249 496)" fill="#e5e5e7" opacity="0.9"/>
    </g>
    <g transform="translate(-2177 -406)">
      <circle id="Ellipse_19-117" data-name="Ellipse 19" cx="1.5" cy="1.5" r="1.5" transform="translate(2249 496)" fill="#e5e5e7" opacity="0.9"/>
    </g>
    <g transform="translate(-2168 -406)">
      <circle id="Ellipse_19-118" data-name="Ellipse 19" cx="1.5" cy="1.5" r="1.5" transform="translate(2249 496)" fill="#e5e5e7" opacity="0.9"/>
    </g>
    <g transform="translate(-2159 -406)">
      <circle id="Ellipse_19-119" data-name="Ellipse 19" cx="1.5" cy="1.5" r="1.5" transform="translate(2249 496)" fill="#e5e5e7" opacity="0.9"/>
    </g>
    <g transform="translate(-2150 -406)">
      <circle id="Ellipse_19-120" data-name="Ellipse 19" cx="1.5" cy="1.5" r="1.5" transform="translate(2249 496)" fill="#e5e5e7" opacity="0.9"/>
    </g>
  </g>
</svg>
