<svg id="picto-temoignage" xmlns="http://www.w3.org/2000/svg" width="76" height="78.867" viewBox="0 0 76 78.867">
  <g id="Groupe_292" data-name="Groupe 292" transform="translate(-718 -1502)">
    <g id="Tracé_80" data-name="Tracé 80" transform="translate(718 1502)" fill="#fff">
      <path d="M 69.40254974365234 77.158447265625 C 67.19839477539062 76.10034942626953 64.98353576660156 74.59288787841797 62.97825622558594 73.22803497314453 C 60.31233215332031 71.41353607177734 58.38615417480469 70.10252380371094 56.95513153076172 70.10252380371094 C 56.59270095825195 70.10252380371094 56.26409912109375 70.1845703125 55.97845458984375 70.34637451171875 C 50.60666656494141 73.39083862304688 44.38988876342773 75.00000762939453 38 75.00000762939453 C 33.00458908081055 75.00000762939453 28.15913391113281 74.02187347412109 23.59823417663574 72.0927734375 C 19.19242286682129 70.22927093505859 15.23538875579834 67.56129455566406 11.83704471588135 64.16294860839844 C 8.438711166381836 60.76461791992188 5.77073335647583 56.80758285522461 3.907233238220215 52.40176010131836 C 1.978133320808411 47.84086227416992 1 42.99541473388672 1 38.00000381469727 C 1 33.00459289550781 1.978133320808411 28.15913772583008 3.907233238220215 23.59823799133301 C 5.77073335647583 19.19242668151855 8.438711166381836 15.23539447784424 11.83704471588135 11.83704948425293 C 15.23538875579834 8.438715934753418 19.19242286682129 5.77073860168457 23.59823417663574 3.907238483428955 C 28.15913391113281 1.978138446807861 33.00458908081055 1.000005125999451 38 1.000005125999451 C 42.99541091918945 1.000005125999451 47.84086608886719 1.978138446807861 52.40176773071289 3.907238483428955 C 56.80757904052734 5.77073860168457 60.76461029052734 8.438715934753418 64.16295623779297 11.83704948425293 C 67.56128692626953 15.23539447784424 70.22926330566406 19.19242668151855 72.09276580810547 23.59823799133301 C 74.02186584472656 28.15913772583008 75 33.00459289550781 75 38.00000381469727 C 75 42.94941711425781 74.03434753417969 47.74613952636719 72.12984466552734 52.25692749023438 C 70.27452087402344 56.65123748779297 67.58170318603516 60.65558242797852 64.12616729736328 64.15870666503906 C 63.16191101074219 65.13711547851562 64.01044464111328 66.64387512207031 65.86961364746094 69.94522857666016 C 67.10172271728516 72.13311004638672 68.57135772705078 74.74281311035156 69.40254974365234 77.158447265625 Z" stroke="none"/>
      <path d="M 38 2 C 33.13915252685547 2 28.42476654052734 2.951553344726562 23.98778915405273 4.828231811523438 C 19.70117568969727 6.641326904296875 15.85098648071289 9.237335205078125 12.54416656494141 12.54415893554688 C 9.237342834472656 15.85098648071289 6.641326904296875 19.701171875 4.828231811523438 23.98778533935547 C 2.951553344726562 28.42476272583008 2 33.1391487121582 2 37.99999618530273 C 2 42.86084365844727 2.951553344726562 47.57523345947266 4.828231811523438 52.01220703125 C 6.641326904296875 56.29882049560547 9.237327575683594 60.14902114868164 12.54416656494141 63.45584487915039 C 15.85097503662109 66.76266479492188 19.70117568969727 69.35868072509766 23.98778915405273 71.17176055908203 C 28.42476654052734 73.04844665527344 33.13915252685547 74 38 74 C 44.21738815307617 74 50.263671875 72.43579864501953 55.48557662963867 69.47626495361328 C 55.92338562011719 69.228271484375 56.41782379150391 69.10251617431641 56.95513153076172 69.10251617431641 C 58.69417572021484 69.10251617431641 60.72716522216797 70.48622131347656 63.54091644287109 72.40135192871094 C 64.76371765136719 73.23361968994141 66.06595611572266 74.11995697021484 67.3878173828125 74.91792297363281 C 66.64979553222656 73.36856842041016 65.77562713623047 71.81627655029297 64.99826812744141 70.4359130859375 C 64.30635070800781 69.20726776123047 63.70878601074219 68.14617156982422 63.30920028686523 67.27006530761719 C 62.99307250976562 66.57696533203125 62.15332794189453 64.73587036132812 63.41423416137695 63.45645523071289 C 66.78038787841797 60.04393768310547 69.40278625488281 56.1450080871582 71.20858764648438 51.86796188354492 C 73.06083679199219 47.48093795776367 74 42.81507873535156 74 37.99999618530273 C 74 33.1391487121582 73.04844665527344 28.42476272583008 71.17176818847656 23.98778533935547 C 69.35867309570312 19.701171875 66.76265716552734 15.85098648071289 63.45583343505859 12.54415893554688 C 60.14900970458984 9.237335205078125 56.29882431030273 6.641326904296875 52.01221084594727 4.828231811523438 C 47.57523345947266 2.951553344726562 42.86084747314453 2 38 2 M 38 0 C 58.98681259155273 0 76 17.01318359375 76 37.99999618530273 C 76 48.35657501220703 71.85690307617188 57.74547958374023 64.83808135986328 64.8609619140625 C 63.88649368286133 65.82652282714844 69.85009765625 73.2667236328125 70.9000244140625 78.86669921875 C 64.85009765625 76.7501220703125 58.33742523193359 70.15941619873047 56.47132873535156 71.21646881103516 C 51.18231964111328 74.21401977539062 44.79972839355469 76 38 76 C 17.01318740844727 76 0 58.98682022094727 0 37.99999618530273 C 0 17.01318359375 17.01318740844727 0 38 0 Z" stroke="none" fill="#00aaad"/>
    </g>
  </g>
  <g id="Groupe_301" data-name="Groupe 301" transform="translate(-766 -1455)">
    <rect id="Rectangle_106" data-name="Rectangle 106" width="38" height="2" rx="1" transform="translate(786 1481)" fill="#00aaad"/>
    <rect id="Rectangle_107" data-name="Rectangle 107" width="38" height="2" rx="1" transform="translate(786 1494)" fill="#00aaad"/>
    <rect id="Rectangle_108" data-name="Rectangle 108" width="19" height="2" rx="1" transform="translate(786 1507)" fill="#00aaad"/>
  </g>
</svg>
